<svg width="189" height="186" viewBox="0 0 189 186" fill="none" xmlns="http://www.w3.org/2000/svg">
<g id="Mask group">
<mask id="mask0_60_216" style="mask-type:alpha" maskUnits="userSpaceOnUse" x="0" y="0" width="189" height="186">
<path id="Union" fill-rule="evenodd" clip-rule="evenodd" d="M188.518 23.5089C188.518 10.6905 178.144 0.299072 165.347 0.299072C152.55 0.299072 142.176 10.6905 142.176 23.5089V162.768C142.176 175.587 152.55 185.978 165.347 185.978C178.144 185.978 188.518 175.587 188.518 162.768V23.5089ZM70.4852 28.5969C72.7074 15.9732 64.2925 3.93521 51.6901 1.70931C39.0876 -0.516594 27.07 7.9125 24.8478 20.5362L0.706476 157.68C-1.51567 170.304 6.89921 182.342 19.5016 184.567C32.1041 186.793 44.1218 178.364 46.3439 165.741L70.4852 28.5969ZM95.835 0.299072C108.632 0.299072 119.006 10.6905 119.006 23.5089V162.768C119.006 175.587 108.632 185.978 95.835 185.978C83.0382 185.978 72.6643 175.587 72.6643 162.768V23.5089C72.6643 10.6905 83.0382 0.299072 95.835 0.299072Z" fill="#69FFED"/>
</mask>
<g mask="url(#mask0_60_216)">
<rect id="Rectangle 66" x="-31" y="-26" width="251" height="225" fill="url(#paint0_linear_60_216)"/>
</g>
</g>
<defs>
<linearGradient id="paint0_linear_60_216" x1="-105.5" y1="317.5" x2="63.2126" y2="372.976" gradientUnits="userSpaceOnUse">
<stop stop-color="#8668FF"/>
<stop offset="0.827944" stop-color="#63B9FF"/>
</linearGradient>
</defs>
</svg>
